<?xml version="1.0" encoding="UTF-8"?>
<svg xmlns="http://www.w3.org/2000/svg" xmlns:xlink="http://www.w3.org/1999/xlink" width="600pt" height="600pt" viewBox="0 0 600 600" version="1.1">
<g id="surface1">
<path style=" stroke:none;fill-rule:nonzero;fill:rgb(8.235294%,44.705882%,71.372549%);fill-opacity:1;" d="M 59.269531 539.722656 L 5.09375 0 L 600.398438 0 L 546.164062 539.636719 L 302.382812 599.667969 Z M 59.269531 539.722656 "/>
<path style=" stroke:none;fill-rule:nonzero;fill:rgb(20%,66.27451%,86.27451%);fill-opacity:1;" d="M 302.746094 553.785156 L 499.734375 505.277344 L 546.082031 44.128906 L 302.746094 44.128906 Z M 302.746094 553.785156 "/>
<path style=" stroke:none;fill-rule:nonzero;fill:rgb(100%,100%,100%);fill-opacity:1;" d="M 112.914062 101.582031 L 112.492188 168.371094 L 418.542969 168.371094 L 418.433594 211.507812 L 112.179688 211.507812 L 111.957031 278.296875 L 418.011719 278.296875 L 417.609375 354.472656 L 302.191406 390.75 L 187.355469 354.472656 L 187.441406 321.4375 L 112.25 321.4375 L 111.90625 401.582031 L 301.863281 461.691406 L 492.542969 401.582031 L 493.183594 281.007812 L 493.378906 256.816406 L 494.15625 101.585938 Z M 112.914062 101.582031 "/>
</g>
</svg>
